<svg xmlns="http://www.w3.org/2000/svg" width="31" height="29" viewBox="0 0 31 29">
    <g fill="none" fill-rule="evenodd">
        <path fill="#939597" d="M12.705 28.575l-9.788-2.509c-.482-.148-.3-.492.112-.657l.617-.247c.838-.317 1.777-.398 2.655-.147l6.538 1.861c.49.14 1.43.408 1.83.292l.731-.213c.164-.053.074-.233-.19-.314l-6.198-1.856c-1.071-.318-1.943-1.607.434-2.567l3.06-1.266c1.377-.55 3.709-.536 5.388.158l8.79 3.605c.545.223.475.567.113.655l-2.082.557c-.798.213-1.656.24-2.436-.039l-6.48-2.286c-.596-.212-1.342-.474-1.83-.299l-.647.23c-.187.07-.23.285-.03.355l4.863 1.629c2.671.898 2.295 2.302 1.057 2.619l-2.042.523c-1.726.44-2.914.305-4.465-.084"/>
        <path fill="#BBBDBF" d="M16.111.793c-.006-.395.586-.655.896-.414l6.507 4.987c2.893 2.267 4.714 5.488 5.345 9.127l1.283 7.522c.194 1.122-.781 1.996-1.804 1.539l-10.136-4.6c-1.162-.538-1.836-1.692-1.858-2.98zm4.822 6.61c-.194-.142-.36-.098-.343.142l.586 7.79c.021.318.226.675.5.834l4.113 2.207c.202.119.454.139.417-.094l-.37-2.769c-.514-3.429-1.264-5.494-3.86-7.389z"/>
        <path fill="#EEEEEF" d="M1.806 11.62c-.062.353.284.734.574.527l6.873-4.744c.24-.166.354-.075.334.195l-.123 1.653c-.028.44-.318.677-.688.911l-5.55 3.587c-.345.219-.625.615-.71 1.018l-.335 2.15c-.022.216.255.378.445.272l6.163-3.577c.137-.076.34.076.33.234l-.12 1.61c-.022.32-.224.566-.501.725L.699 20.356c-.43.235-.468.466-.534.846l-.136.683c-.211 1.174.776 2.153 1.804 1.679l10.149-4.611c1.16-.537 1.84-1.81 1.862-3.099L14.073.912c.008-.394-.596-.764-.905-.523L4.336 7.144c-1.4 1.097-2.22 2.717-2.53 4.475"/>
    </g>
</svg>
