<svg xmlns="http://www.w3.org/2000/svg" xmlns:xlink="http://www.w3.org/1999/xlink" width="372" height="30" viewBox="0 0 372 30">
    <defs>
        <path id="prefix__a" d="M195.552 25.26c3.536 0 5.824-1.924 5.824-5.356 0-6.032-8.372-5.512-8.372-9.178 0-1.326.702-2.262 2.6-2.262 1.56 0 2.756.858 3.302 2.392l2.288-1.04c-.884-2.366-2.886-3.926-5.85-3.926-3.458 0-5.564 2.184-5.564 4.992 0 6.084 8.528 5.278 8.528 9.36 0 1.638-.91 2.444-2.782 2.444-1.508 0-2.938-.884-3.536-2.678l-2.444.884c.728 2.704 3.198 4.368 6.006 4.368zm12.818-.026c3.484 0 5.304-2.08 5.304-4.758v-4.108c0-2.73-1.768-4.81-5.304-4.81-3.484 0-5.278 2.132-5.278 4.81v4.108c0 2.678 1.794 4.758 5.278 4.758zm0-2.184c-1.586 0-2.366-.962-2.366-2.704v-3.874c0-1.716.728-2.704 2.366-2.704 1.664 0 2.392.988 2.392 2.704v3.874c0 1.742-.728 2.704-2.392 2.704zM219.602 25V13.924h2.938v-2.106h-3.068v-.884c0-1.69.728-2.782 2.938-2.886l-.13-2.028c-4.134.104-5.59 2.236-5.59 4.862v.936h-1.534v2.106h1.534V25h2.912zm8.84.208c.962 0 1.742-.234 2.418-.598l-.26-1.794c-.364.13-.728.208-1.118.208-.988 0-1.612-.546-1.612-1.794v-7.254h2.99v-2.184h-2.99V8.074h-2.028l-.754 3.64-1.742.13v1.846l1.586.416V21.1c0 2.652 1.014 4.108 3.51 4.108zM238.738 25l2.288-9.828h.052L243.34 25h3.224l3.562-13.208h-3.042l-2.21 10.556h-.052l-2.392-10.556h-2.782l-2.418 10.504h-.052l-2.184-10.504h-3.042L235.514 25h3.224zm15.99.234c1.326 0 2.47-.39 3.406-1.274.416.702 1.144 1.196 2.366 1.196.468 0 .962-.104 1.352-.208v-1.664h-.338c-.624 0-.936-.364-.936-.988v-6.24c0-2.548-1.248-4.524-4.394-4.524-2.314 0-3.796 1.248-4.732 3.068l1.768.988c.624-1.196 1.508-1.82 2.548-1.82 1.274 0 1.924.676 1.924 2.288v1.274h-.91c-4.394 0-5.772 1.95-5.772 4.264 0 2.158 1.378 3.64 3.718 3.64zm.728-2.002c-1.04 0-1.664-.494-1.664-1.846 0-1.3.702-2.132 2.99-2.132h.91v2.964c-.572.65-1.248 1.014-2.236 1.014zM266.636 25v-7.358c.234-2.132 1.17-3.406 2.912-3.406.468 0 .91.104 1.274.338l.312-2.652c-.39-.208-.962-.338-1.482-.338-1.378 0-2.47.676-3.224 2.392h-.052l-.13-2.184h-2.522V25h2.912zm10.738.234c2.626 0 4.16-1.118 4.914-3.38l-2.08-.78c-.546 1.404-1.3 1.95-2.548 1.95-1.638 0-2.496-.936-2.496-2.73V18.76h7.098v-2.288c0-2.73-1.742-4.914-4.94-4.914-3.328 0-5.07 2.132-5.07 4.784v4.056c0 2.782 1.82 4.836 5.122 4.836zm2.314-8.19h-4.524v-.858c0-1.56.702-2.47 2.262-2.47 1.43 0 2.262.858 2.262 2.418v.91zm15.626 8.216c3.536 0 5.824-1.924 5.824-5.356 0-6.032-8.372-5.512-8.372-9.178 0-1.326.702-2.262 2.6-2.262 1.56 0 2.756.858 3.302 2.392l2.288-1.04c-.884-2.366-2.886-3.926-5.85-3.926-3.458 0-5.564 2.184-5.564 4.992 0 6.084 8.528 5.278 8.528 9.36 0 1.638-.91 2.444-2.782 2.444-1.508 0-2.938-.884-3.536-2.678l-2.444.884c.728 2.704 3.198 4.368 6.006 4.368zm11.934-.026c1.482 0 2.704-.494 3.614-1.482h.052l.104 1.248h2.574V11.792h-2.886v9.88c-.494.676-1.378 1.248-2.522 1.248-1.482 0-2.21-.91-2.21-2.652v-8.476h-2.912v8.45c0 3.068 1.508 4.992 4.186 4.992zm12.298 4.16v-5.356h.052c.832.78 1.95 1.17 3.198 1.17 2.886 0 4.368-1.95 4.368-4.992v-3.64c0-3.094-1.456-5.018-4.16-5.018-1.534 0-2.756.494-3.64 1.508h-.052l-.078-1.274h-2.6v17.602h2.912zm2.444-6.474c-1.17 0-1.95-.52-2.444-1.222v-6.5c.494-.676 1.378-1.248 2.522-1.248 1.482 0 2.21.91 2.21 2.678v3.588c0 1.82-.78 2.704-2.288 2.704zm10.634 6.474v-5.356h.052c.832.78 1.95 1.17 3.198 1.17 2.886 0 4.368-1.95 4.368-4.992v-3.64c0-3.094-1.456-5.018-4.16-5.018-1.534 0-2.756.494-3.64 1.508h-.052l-.078-1.274h-2.6v17.602h2.912zm2.444-6.474c-1.17 0-1.95-.52-2.444-1.222v-6.5c.494-.676 1.378-1.248 2.522-1.248 1.482 0 2.21.91 2.21 2.678v3.588c0 1.82-.78 2.704-2.288 2.704zm12.532 2.314c3.484 0 5.304-2.08 5.304-4.758v-4.108c0-2.73-1.768-4.81-5.304-4.81-3.484 0-5.278 2.132-5.278 4.81v4.108c0 2.678 1.794 4.758 5.278 4.758zm0-2.184c-1.586 0-2.366-.962-2.366-2.704v-3.874c0-1.716.728-2.704 2.366-2.704 1.664 0 2.392.988 2.392 2.704v3.874c0 1.742-.728 2.704-2.392 2.704zM358.364 25v-7.358c.234-2.132 1.17-3.406 2.912-3.406.468 0 .91.104 1.274.338l.312-2.652c-.39-.208-.962-.338-1.482-.338-1.378 0-2.47.676-3.224 2.392h-.052l-.13-2.184h-2.522V25h2.912zm10.426.208c.962 0 1.742-.234 2.418-.598l-.26-1.794c-.364.13-.728.208-1.118.208-.988 0-1.612-.546-1.612-1.794v-7.254h2.99v-2.184h-2.99V8.074h-2.028l-.754 3.64-1.742.13v1.846l1.586.416V21.1c0 2.652 1.014 4.108 3.51 4.108z"/>
    </defs>
    <g fill="none" fill-rule="evenodd">
        <g fill-rule="nonzero">
            <use fill="#FFF" xlink:href="#prefix__a"/>
            <use fill="#BBBDBF" xlink:href="#prefix__a"/>
        </g>
        <path fill="#EEEEEF" d="M178.732 6.001v2.962h-5.075c-2.089.012-3.163 1.1-3.163 2.445 0 1.354 1.373 2.163 3.2 2.45 3.354.469 6.13 1.968 6.13 5.542 0 3.43-2.235 5.536-6.105 5.546v.001h-5.738v-2.955h5.732c2.078-.008 3.18-1.165 3.18-2.592 0-1.432-1.458-2.29-3.199-2.593-3.39-.508-6.13-2.425-6.13-5.407 0-3.319 2.273-5.384 6.093-5.398v-.001h5.075zm-27.96 0l5.432 11.476L161.644 6h2.951v18.946h-2.95v-12.72l-4.495 9.48h-1.894l-4.484-9.47v12.71h-2.951V6.001h2.951zm-6.49 0v2.816h-6.956c-.269 0-.488.22-.488.493v4.65h5.752v2.493h-5.752v5.184c0 .272.219.493.488.493h7.267v2.817h-8.871c-1.179 0-2.134-.965-2.134-2.154V8.126c0-1.175.943-2.126 2.104-2.126h8.59zM130.537 6v2.843h-4.408v16.105h-3.269V8.843h-4.419V6h12.096zm-15.147.001v2.962h-5.075c-2.089.012-3.163 1.1-3.163 2.445 0 1.354 1.373 2.163 3.2 2.45 3.353.469 6.13 1.968 6.13 5.542 0 3.43-2.235 5.536-6.105 5.546v.001h-5.738v-2.955h5.732c2.078-.008 3.18-1.165 3.18-2.592 0-1.432-1.458-2.29-3.199-2.593-3.39-.508-6.13-2.425-6.13-5.407 0-3.319 2.273-5.384 6.093-5.398v-.001h5.075zm-23.629 0l4.095 7.628 4.095-7.628h3.261l-5.725 11.284.013.031h-.027v7.632h-3.261v-7.693L88.5 6h3.261zm-5.53 0v2.962h-5.074c-2.09.012-3.164 1.1-3.164 2.445 0 1.354 1.374 2.163 3.2 2.45 3.354.469 6.131 1.968 6.131 5.542 0 3.43-2.235 5.536-6.105 5.546v.001H75.48v-2.955h5.732c2.077-.008 3.18-1.165 3.18-2.592 0-1.432-1.458-2.29-3.2-2.593-3.39-.508-6.13-2.425-6.13-5.407 0-3.319 2.273-5.384 6.094-5.398v-.001h5.074zm-26.03 0c2.754 0 6.504 1.285 6.632 6.43v6.431h-.011c-.293 4.787-3.759 6.086-6.62 6.086h-6.443V6zm-14.25 0c2.521 0 4.566 2.06 4.566 4.603v1.186c0 1.238-.588 2.896-2.12 3.321l-.197.047c1.711.369 2.317 2.078 2.317 3.368v1.784c0 2.561-2.06 4.637-4.6 4.637H39v-2.816h6.34c1.064 0 1.927-.87 1.927-1.943v-1.394c0-1.288-1.045-2.341-2.323-2.341h-4.453V13.96h4.417c1.297 0 2.359-1.07 2.359-2.378v-.822c0-1.074-.863-1.943-1.928-1.943h-6.027V6h6.638zM60.2 8.788h-3.147v13.477h3.148l.11-.001c1.328-.024 3.158-.514 3.226-3.643v-6.19c-.07-3.214-2-3.643-3.336-3.643z"/>
        <path fill="#939597" d="M12.705 28.575l-9.788-2.509c-.482-.148-.3-.492.112-.657l.617-.247c.838-.317 1.777-.398 2.655-.147l6.538 1.861c.49.14 1.43.408 1.83.292l.731-.213c.164-.053.074-.233-.19-.314l-6.198-1.856c-1.071-.318-1.943-1.607.434-2.567l3.06-1.266c1.377-.55 3.709-.536 5.388.158l8.79 3.605c.545.223.475.567.113.655l-2.082.557c-.798.213-1.656.24-2.436-.039l-6.48-2.286c-.596-.212-1.342-.474-1.83-.299l-.647.23c-.187.07-.23.285-.03.355l4.863 1.629c2.671.898 2.295 2.302 1.057 2.619l-2.042.523c-1.726.44-2.914.305-4.465-.084"/>
        <path fill="#BBBDBF" d="M16.111.793c-.006-.395.586-.655.896-.414l6.507 4.987c2.893 2.267 4.714 5.488 5.345 9.127l1.283 7.522c.194 1.122-.781 1.996-1.804 1.539l-10.136-4.6c-1.162-.538-1.836-1.692-1.858-2.98zm4.822 6.61c-.194-.142-.36-.098-.343.142l.586 7.79c.021.318.226.675.5.834l4.113 2.207c.202.119.454.139.417-.094l-.37-2.769c-.514-3.429-1.264-5.494-3.86-7.389z"/>
        <path fill="#EEEEEF" d="M1.806 11.62c-.062.353.284.734.574.527l6.873-4.744c.24-.166.354-.075.334.195l-.123 1.653c-.028.44-.318.677-.688.911l-5.55 3.587c-.345.219-.625.615-.71 1.018l-.335 2.15c-.022.216.255.378.445.272l6.163-3.577c.137-.076.34.076.33.234l-.12 1.61c-.022.32-.224.566-.501.725L.699 20.356c-.43.235-.468.466-.534.846l-.136.683c-.211 1.174.776 2.153 1.804 1.679l10.149-4.611c1.16-.537 1.84-1.81 1.862-3.099L14.073.912c.008-.394-.596-.764-.905-.523L4.336 7.144c-1.4 1.097-2.22 2.717-2.53 4.475"/>
    </g>
</svg>
