<?xml version="1.0" standalone="no"?>
<!DOCTYPE svg PUBLIC "-//W3C//DTD SVG 20010904//EN"
 "http://www.w3.org/TR/2001/REC-SVG-20010904/DTD/svg10.dtd">
<svg version="1.0" xmlns="http://www.w3.org/2000/svg"
 width="32.000000pt" height="32.000000pt" viewBox="0 0 32.000000 32.000000"
 preserveAspectRatio="xMidYMid meet">

<g transform="translate(0.000000,32.000000) scale(0.100000,-0.100000)"
fill="#000000" stroke="none">
<path d="M95 225 c-44 -43 -32 -119 22 -144 27 -12 153 -15 153 -3 -1 21 -21
30 -78 34 -66 5 -82 15 -82 53 0 48 59 62 85 21 13 -19 14 -29 5 -45 -9 -19
-8 -21 14 -21 43 0 49 53 10 99 -34 41 -92 44 -129 6z"/>
</g>
</svg>
