<svg xmlns="http://www.w3.org/2000/svg" width="20" height="20" viewBox="0 0 20 20">
    <path fill="#FFF" fill-rule="evenodd" d="M.002 7.497C.002 4.063 2.274 1.09 5.539.26c2.473-.63 4.726-.119 6.692 1.513 1.401 1.163 2.25 2.674 2.539 4.476.296 1.854-.056 3.59-1.054 5.184-.071.111-.063.176.03.269 2.004 2 4.006 4.002 6.005 6.007.327.327.333.667.01 1.004-.345.355-.699.702-1.049 1.051-.126.132-.294.215-.475.233-.174.016-.344-.052-.46-.182-.244-.247-.49-.491-.735-.737l-5.314-5.323c-.098-.1-.162-.116-.286-.035-.946.628-2.03 1.015-3.157 1.13-2.43.238-4.524-.5-6.23-2.263C.949 11.445.3 10.072.069 8.5.015 8.17-.007 7.833.002 7.497zm7.436 5.352c2.957.001 5.363-2.382 5.393-5.342.03-2.96-2.326-5.392-5.282-5.453-3.094-.06-5.501 2.46-5.508 5.379-.01 2.985 2.426 5.433 5.397 5.417z"/>
</svg>
