<svg xmlns="http://www.w3.org/2000/svg" xmlns:xlink="http://www.w3.org/1999/xlink" width="183" height="25" viewBox="0 0 183 25">
    <defs>
        <path id="prefix__a" d="M60.552 40.26c3.536 0 5.824-1.924 5.824-5.356 0-6.032-8.372-5.512-8.372-9.178 0-1.326.702-2.262 2.6-2.262 1.56 0 2.756.858 3.302 2.392l2.288-1.04c-.884-2.366-2.886-3.926-5.85-3.926-3.458 0-5.564 2.184-5.564 4.992 0 6.084 8.528 5.278 8.528 9.36 0 1.638-.91 2.444-2.782 2.444-1.508 0-2.938-.884-3.536-2.678l-2.444.884c.728 2.704 3.198 4.368 6.006 4.368zm12.818-.026c3.484 0 5.304-2.08 5.304-4.758v-4.108c0-2.73-1.768-4.81-5.304-4.81-3.484 0-5.278 2.132-5.278 4.81v4.108c0 2.678 1.794 4.758 5.278 4.758zm0-2.184c-1.586 0-2.366-.962-2.366-2.704v-3.874c0-1.716.728-2.704 2.366-2.704 1.664 0 2.392.988 2.392 2.704v3.874c0 1.742-.728 2.704-2.392 2.704zM84.602 40V28.924h2.938v-2.106h-3.068v-.884c0-1.69.728-2.782 2.938-2.886l-.13-2.028c-4.134.104-5.59 2.236-5.59 4.862v.936h-1.534v2.106h1.534V40h2.912zm8.84.208c.962 0 1.742-.234 2.418-.598l-.26-1.794c-.364.13-.728.208-1.118.208-.988 0-1.612-.546-1.612-1.794v-7.254h2.99v-2.184h-2.99v-3.718h-2.028l-.754 3.64-1.742.13v1.846l1.586.416V36.1c0 2.652 1.014 4.108 3.51 4.108zM103.738 40l2.288-9.828h.052L108.34 40h3.224l3.562-13.208h-3.042l-2.21 10.556h-.052l-2.392-10.556h-2.782l-2.418 10.504h-.052l-2.184-10.504h-3.042L100.514 40h3.224zm15.99.234c1.326 0 2.47-.39 3.406-1.274.416.702 1.144 1.196 2.366 1.196.468 0 .962-.104 1.352-.208v-1.664h-.338c-.624 0-.936-.364-.936-.988v-6.24c0-2.548-1.248-4.524-4.394-4.524-2.314 0-3.796 1.248-4.732 3.068l1.768.988c.624-1.196 1.508-1.82 2.548-1.82 1.274 0 1.924.676 1.924 2.288v1.274h-.91c-4.394 0-5.772 1.95-5.772 4.264 0 2.158 1.378 3.64 3.718 3.64zm.728-2.002c-1.04 0-1.664-.494-1.664-1.846 0-1.3.702-2.132 2.99-2.132h.91v2.964c-.572.65-1.248 1.014-2.236 1.014zM131.636 40v-7.358c.234-2.132 1.17-3.406 2.912-3.406.468 0 .91.104 1.274.338l.312-2.652c-.39-.208-.962-.338-1.482-.338-1.378 0-2.47.676-3.224 2.392h-.052l-.13-2.184h-2.522V40h2.912zm10.738.234c2.626 0 4.16-1.118 4.914-3.38l-2.08-.78c-.546 1.404-1.3 1.95-2.548 1.95-1.638 0-2.496-.936-2.496-2.73V33.76h7.098v-2.288c0-2.73-1.742-4.914-4.94-4.914-3.328 0-5.07 2.132-5.07 4.784v4.056c0 2.782 1.82 4.836 5.122 4.836zm2.314-8.19h-4.524v-.858c0-1.56.702-2.47 2.262-2.47 1.43 0 2.262.858 2.262 2.418v.91zm15.626 8.216c3.536 0 5.824-1.924 5.824-5.356 0-6.032-8.372-5.512-8.372-9.178 0-1.326.702-2.262 2.6-2.262 1.56 0 2.756.858 3.302 2.392l2.288-1.04c-.884-2.366-2.886-3.926-5.85-3.926-3.458 0-5.564 2.184-5.564 4.992 0 6.084 8.528 5.278 8.528 9.36 0 1.638-.91 2.444-2.782 2.444-1.508 0-2.938-.884-3.536-2.678l-2.444.884c.728 2.704 3.198 4.368 6.006 4.368zm11.934-.026c1.482 0 2.704-.494 3.614-1.482h.052l.104 1.248h2.574V26.792h-2.886v9.88c-.494.676-1.378 1.248-2.522 1.248-1.482 0-2.21-.91-2.21-2.652v-8.476h-2.912v8.45c0 3.068 1.508 4.992 4.186 4.992zm12.298 4.16v-5.356h.052c.832.78 1.95 1.17 3.198 1.17 2.886 0 4.368-1.95 4.368-4.992v-3.64c0-3.094-1.456-5.018-4.16-5.018-1.534 0-2.756.494-3.64 1.508h-.052l-.078-1.274h-2.6v17.602h2.912zm2.444-6.474c-1.17 0-1.95-.52-2.444-1.222v-6.5c.494-.676 1.378-1.248 2.522-1.248 1.482 0 2.21.91 2.21 2.678v3.588c0 1.82-.78 2.704-2.288 2.704zm10.634 6.474v-5.356h.052c.832.78 1.95 1.17 3.198 1.17 2.886 0 4.368-1.95 4.368-4.992v-3.64c0-3.094-1.456-5.018-4.16-5.018-1.534 0-2.756.494-3.64 1.508h-.052l-.078-1.274h-2.6v17.602h2.912zm2.444-6.474c-1.17 0-1.95-.52-2.444-1.222v-6.5c.494-.676 1.378-1.248 2.522-1.248 1.482 0 2.21.91 2.21 2.678v3.588c0 1.82-.78 2.704-2.288 2.704zm12.532 2.314c3.484 0 5.304-2.08 5.304-4.758v-4.108c0-2.73-1.768-4.81-5.304-4.81-3.484 0-5.278 2.132-5.278 4.81v4.108c0 2.678 1.794 4.758 5.278 4.758zm0-2.184c-1.586 0-2.366-.962-2.366-2.704v-3.874c0-1.716.728-2.704 2.366-2.704 1.664 0 2.392.988 2.392 2.704v3.874c0 1.742-.728 2.704-2.392 2.704zM223.364 40v-7.358c.234-2.132 1.17-3.406 2.912-3.406.468 0 .91.104 1.274.338l.312-2.652c-.39-.208-.962-.338-1.482-.338-1.378 0-2.47.676-3.224 2.392h-.052l-.13-2.184h-2.522V40h2.912zm10.426.208c.962 0 1.742-.234 2.418-.598l-.26-1.794c-.364.13-.728.208-1.118.208-.988 0-1.612-.546-1.612-1.794v-7.254h2.99v-2.184h-2.99v-3.718h-2.028l-.754 3.64-1.742.13v1.846l1.586.416V36.1c0 2.652 1.014 4.108 3.51 4.108z"/>
    </defs>
    <g fill="none" transform="translate(-54 -20)">
        <use fill="#FFF" xlink:href="#prefix__a"/>
        <use fill="#BBBDBF" xlink:href="#prefix__a"/>
    </g>
</svg>
